<svg width="90" height="19" viewBox="0 0 90 19" fill="none" xmlns="http://www.w3.org/2000/svg">
<path d="M10.28 14C9.70667 14 9.17333 13.92 8.68 13.76C8.18667 13.5867 7.76 13.3333 7.4 13C7.04 12.6667 6.75333 12.2533 6.54 11.76C6.34 11.2667 6.24 10.7 6.24 10.06C6.24 9.26 6.37333 8.56 6.64 7.96C6.90667 7.34667 7.26667 6.83333 7.72 6.42C8.18667 6.00667 8.72 5.69333 9.32 5.48C9.93333 5.26667 10.5867 5.16 11.28 5.16C11.92 5.16 12.5267 5.24 13.1 5.4C13.6733 5.56 14.1733 5.79333 14.6 6.1C15.12 6.46 15.38 6.90667 15.38 7.44C15.38 7.48 15.38 7.54 15.38 7.62C15.38 7.7 15.3733 7.77333 15.36 7.84L14.94 11.44C14.9933 11.4667 15.0733 11.4867 15.18 11.5C15.2867 11.5133 15.3733 11.52 15.44 11.52C16.04 11.52 16.5133 11.24 16.86 10.68C17.2067 10.1067 17.38 9.36667 17.38 8.46C17.38 7.7 17.2267 7.00667 16.92 6.38C16.6133 5.74 16.1867 5.19333 15.64 4.74C15.1067 4.28667 14.46 3.93333 13.7 3.68C12.9533 3.42667 12.1333 3.3 11.24 3.3C10.2 3.3 9.24667 3.46667 8.38 3.8C7.51333 4.13333 6.76667 4.6 6.14 5.2C5.52667 5.78667 5.04667 6.48667 4.7 7.3C4.36667 8.1 4.2 8.97333 4.2 9.92C4.2 10.84 4.34667 11.6667 4.64 12.4C4.94667 13.1333 5.36667 13.76 5.9 14.28C6.43333 14.8 7.06 15.1933 7.78 15.46C8.51333 15.74 9.31333 15.88 10.18 15.88C10.78 15.88 11.2667 15.8533 11.64 15.8C12.0267 15.7467 12.3667 15.7 12.66 15.66C12.7533 15.8067 12.8333 15.9867 12.9 16.2C12.98 16.4133 13.02 16.6133 13.02 16.8C13.02 17.08 12.9733 17.3267 12.88 17.54C12.7867 17.7533 12.62 17.9333 12.38 18.08C12.1533 18.2267 11.84 18.34 11.44 18.42C11.04 18.5 10.54 18.54 9.94 18.54C8.91333 18.54 7.86667 18.38 6.8 18.06C5.74667 17.74 4.78667 17.2333 3.92 16.54C3.05333 15.86 2.34667 14.9733 1.8 13.88C1.25333 12.7867 0.98 11.4667 0.98 9.92C0.98 8.50667 1.24 7.23333 1.76 6.1C2.29333 4.95333 3.02 3.98667 3.94 3.2C4.86 2.41333 5.94 1.80667 7.18 1.38C8.43333 0.953332 9.78 0.739999 11.22 0.739999C12.5933 0.739999 13.8533 0.926666 15 1.3C16.1467 1.66 17.1333 2.17333 17.96 2.84C18.7867 3.50667 19.4267 4.32 19.88 5.28C20.3467 6.24 20.58 7.30667 20.58 8.48C20.58 10.2667 20.1333 11.6533 19.24 12.64C18.3467 13.6133 17.08 14.1 15.44 14.1C15.04 14.1 14.5933 14.0467 14.1 13.94C13.62 13.82 13.1867 13.64 12.8 13.4C12.52 13.56 12.1667 13.7 11.74 13.82C11.3267 13.94 10.84 14 10.28 14ZM12.18 8.02C12.1 7.96667 11.9867 7.92 11.84 7.88C11.6933 7.84 11.5 7.82 11.26 7.82C11.0467 7.82 10.84 7.86667 10.64 7.96C10.44 8.04 10.26 8.17333 10.1 8.36C9.95333 8.53333 9.83333 8.76 9.74 9.04C9.64667 9.32 9.6 9.65333 9.6 10.04C9.6 10.48 9.70667 10.8267 9.92 11.08C10.1333 11.32 10.4533 11.44 10.88 11.44C11.12 11.44 11.3133 11.4133 11.46 11.36C11.6067 11.2933 11.7467 11.22 11.88 11.14L12.18 8.02ZM22.0867 7.92C22.0867 6.88 22.2467 5.96 22.5667 5.16C22.9001 4.36 23.3467 3.69333 23.9067 3.16C24.4801 2.61333 25.1467 2.2 25.9067 1.92C26.6801 1.64 27.5134 1.5 28.4067 1.5C29.3001 1.5 30.1267 1.64 30.8867 1.92C31.6601 2.2 32.3334 2.61333 32.9067 3.16C33.4801 3.69333 33.9267 4.36 34.2467 5.16C34.5801 5.96 34.7467 6.88 34.7467 7.92C34.7467 8.96 34.5867 9.88667 34.2667 10.7C33.9467 11.5 33.5001 12.1733 32.9267 12.72C32.3667 13.2533 31.7001 13.66 30.9267 13.94C30.1534 14.22 29.3134 14.36 28.4067 14.36C27.5001 14.36 26.6601 14.22 25.8867 13.94C25.1134 13.6467 24.4467 13.2267 23.8867 12.68C23.3267 12.1333 22.8867 11.46 22.5667 10.66C22.2467 9.86 22.0867 8.94667 22.0867 7.92ZM25.6867 7.92C25.6867 9.13333 25.9334 10.04 26.4267 10.64C26.9201 11.24 27.5801 11.54 28.4067 11.54C29.2467 11.54 29.9134 11.24 30.4067 10.64C30.9001 10.04 31.1467 9.13333 31.1467 7.92C31.1467 6.72 30.9001 5.82 30.4067 5.22C29.9267 4.62 29.2667 4.32 28.4267 4.32C27.6001 4.32 26.9334 4.62 26.4267 5.22C25.9334 5.80667 25.6867 6.70667 25.6867 7.92ZM45.0706 11.02C44.8973 11.1667 44.6706 11.2867 44.3906 11.38C44.124 11.46 43.8106 11.5 43.4506 11.5C42.9706 11.5 42.5706 11.44 42.2506 11.32C41.944 11.2 41.744 10.9933 41.6506 10.7C41.2773 9.52667 40.9706 8.58 40.7306 7.86C40.4906 7.12667 40.304 6.48667 40.1706 5.94H40.0706C40.0306 6.72667 39.9973 7.44667 39.9706 8.1C39.9573 8.74 39.944 9.36667 39.9306 9.98C39.9306 10.5933 39.9173 11.2133 39.8906 11.84C39.8773 12.4667 39.8506 13.16 39.8106 13.92C39.6373 13.9867 39.4106 14.04 39.1306 14.08C38.8506 14.1333 38.5706 14.16 38.2906 14.16C37.704 14.16 37.244 14.0667 36.9106 13.88C36.5906 13.6933 36.4306 13.3533 36.4306 12.86L37.0106 2.66C37.1173 2.48667 37.3506 2.3 37.7106 2.1C38.0706 1.9 38.5773 1.8 39.2306 1.8C39.9373 1.8 40.4906 1.91333 40.8906 2.14C41.2906 2.35333 41.584 2.70667 41.7706 3.2C41.8906 3.52 42.0173 3.88667 42.1506 4.3C42.2973 4.71333 42.4373 5.14 42.5706 5.58C42.7173 6.02 42.8573 6.46 42.9906 6.9C43.124 7.32667 43.244 7.71333 43.3506 8.06H43.4506C43.7706 6.94 44.0906 5.86 44.4106 4.82C44.7306 3.76667 45.024 2.88667 45.2906 2.18C45.4906 2.07333 45.744 1.98667 46.0506 1.92C46.3706 1.84 46.724 1.8 47.1106 1.8C47.764 1.8 48.2973 1.9 48.7106 2.1C49.124 2.28667 49.364 2.56 49.4306 2.92C49.484 3.18667 49.5373 3.6 49.5906 4.16C49.6573 4.70667 49.724 5.32667 49.7906 6.02C49.8573 6.71333 49.924 7.44667 49.9906 8.22C50.0573 8.99333 50.1173 9.74 50.1706 10.46C50.2373 11.1667 50.2906 11.82 50.3306 12.42C50.3706 13.0067 50.3973 13.46 50.4106 13.78C50.184 13.9133 49.944 14.0067 49.6906 14.06C49.4506 14.1267 49.1373 14.16 48.7506 14.16C48.244 14.16 47.8173 14.0733 47.4706 13.9C47.124 13.7267 46.9373 13.3867 46.9106 12.88C46.8306 11.4267 46.7773 10.12 46.7506 8.96C46.7373 7.8 46.7106 6.82667 46.6706 6.04H46.5706C46.4373 6.56 46.244 7.21333 45.9906 8C45.7373 8.78667 45.4306 9.79333 45.0706 11.02ZM55.3058 2.24C55.5324 2.10667 55.8724 1.98 56.3258 1.86C56.7924 1.74 57.2591 1.68 57.7258 1.68C58.3924 1.68 58.9791 1.78 59.4858 1.98C60.0058 2.16667 60.3391 2.46667 60.4858 2.88C60.7258 3.57333 60.9858 4.38 61.2658 5.3C61.5458 6.22 61.8258 7.17333 62.1058 8.16C62.3858 9.13333 62.6591 10.1 62.9258 11.06C63.1924 12.0067 63.4258 12.8467 63.6258 13.58C63.4658 13.7667 63.2258 13.9133 62.9058 14.02C62.5858 14.14 62.2058 14.2 61.7658 14.2C61.4458 14.2 61.1724 14.1733 60.9458 14.12C60.7324 14.0667 60.5524 13.9867 60.4058 13.88C60.2724 13.7733 60.1591 13.6333 60.0658 13.46C59.9858 13.2867 59.9124 13.0867 59.8458 12.86L59.4858 11.48H55.8658C55.7591 11.88 55.6524 12.2933 55.5458 12.72C55.4391 13.1467 55.3324 13.56 55.2258 13.96C55.0391 14.0267 54.8391 14.08 54.6258 14.12C54.4258 14.1733 54.1791 14.2 53.8858 14.2C53.2058 14.2 52.6991 14.0867 52.3658 13.86C52.0458 13.62 51.8858 13.2933 51.8858 12.88C51.8858 12.6933 51.9124 12.5067 51.9658 12.32C52.0191 12.1333 52.0791 11.9133 52.1458 11.66C52.2391 11.3 52.3658 10.8533 52.5258 10.32C52.6991 9.78667 52.8858 9.21333 53.0858 8.6C53.2858 7.97333 53.4991 7.33333 53.7258 6.68C53.9524 6.02667 54.1658 5.41333 54.3658 4.84C54.5658 4.25333 54.7458 3.73333 54.9058 3.28C55.0791 2.82667 55.2124 2.48 55.3058 2.24ZM57.7058 4.82C57.5191 5.38 57.3058 6.00667 57.0658 6.7C56.8391 7.38 56.6324 8.07333 56.4458 8.78H58.9258C58.7391 8.06 58.5458 7.36 58.3458 6.68C58.1591 5.98667 57.9858 5.36667 57.8258 4.82H57.7058ZM76.2448 13.58C76.0582 13.7667 75.7848 13.9067 75.4248 14C75.0782 14.1067 74.6582 14.16 74.1648 14.16C73.6715 14.16 73.2048 14.0867 72.7648 13.94C72.3248 13.7933 71.9648 13.44 71.6848 12.88L69.7048 8.84C69.5048 8.42667 69.3248 8.04 69.1648 7.68C69.0048 7.30667 68.8315 6.88 68.6448 6.4L68.5248 6.42C68.5782 7.14 68.6048 7.87333 68.6048 8.62C68.6182 9.36667 68.6248 10.1 68.6248 10.82V13.92C68.4782 13.96 68.2515 14 67.9448 14.04C67.6515 14.08 67.3582 14.1 67.0648 14.1C66.7715 14.1 66.5115 14.08 66.2848 14.04C66.0582 14 65.8715 13.92 65.7248 13.8C65.5782 13.68 65.4648 13.52 65.3848 13.32C65.3048 13.1067 65.2648 12.8333 65.2648 12.5V2.5C65.4515 2.23333 65.7382 2.03333 66.1248 1.9C66.5115 1.76667 66.9248 1.7 67.3648 1.7C67.8582 1.7 68.3248 1.78 68.7648 1.94C69.2182 2.08667 69.5782 2.43333 69.8448 2.98L71.8448 7.02C72.0448 7.43333 72.2248 7.82667 72.3848 8.2C72.5448 8.56 72.7182 8.98 72.9048 9.46L73.0048 9.44C72.9515 8.72 72.9182 8 72.9048 7.28C72.8915 6.56 72.8848 5.84 72.8848 5.12V1.88C73.0315 1.84 73.2515 1.8 73.5448 1.76C73.8515 1.72 74.1515 1.7 74.4448 1.7C75.0315 1.7 75.4782 1.80667 75.7848 2.02C76.0915 2.22 76.2448 2.64667 76.2448 3.3V13.58ZM89.8191 12.02C89.8191 12.4333 89.7457 12.74 89.5991 12.94C89.4524 13.14 89.2191 13.3333 88.8991 13.52C88.7124 13.6267 88.4791 13.7333 88.1991 13.84C87.9191 13.9333 87.6124 14.0133 87.2791 14.08C86.9457 14.16 86.5924 14.22 86.2191 14.26C85.8591 14.3 85.4991 14.32 85.1391 14.32C84.1791 14.32 83.2791 14.1933 82.4391 13.94C81.5991 13.6733 80.8657 13.28 80.2391 12.76C79.6257 12.2267 79.1391 11.5667 78.7791 10.78C78.4191 9.99333 78.2391 9.08 78.2391 8.04C78.2391 6.94667 78.4324 5.99333 78.8191 5.18C79.2191 4.36667 79.7391 3.69333 80.3791 3.16C81.0324 2.61333 81.7724 2.20667 82.5991 1.94C83.4391 1.67333 84.2991 1.54 85.1791 1.54C86.4457 1.54 87.4457 1.74667 88.1791 2.16C88.9257 2.56 89.2991 3.08667 89.2991 3.74C89.2991 4.08667 89.2124 4.38667 89.0391 4.64C88.8657 4.89333 88.6657 5.09333 88.4391 5.24C88.1057 5.04 87.6857 4.84667 87.1791 4.66C86.6857 4.46 86.1257 4.36 85.4991 4.36C84.3791 4.36 83.4857 4.68 82.8191 5.32C82.1657 5.96 81.8391 6.84667 81.8391 7.98C81.8391 8.59333 81.9257 9.12667 82.0991 9.58C82.2857 10.02 82.5324 10.3867 82.8391 10.68C83.1457 10.96 83.4991 11.1733 83.8991 11.32C84.2991 11.4533 84.7257 11.52 85.1791 11.52C85.4724 11.52 85.7324 11.4933 85.9591 11.44C86.1857 11.3867 86.3591 11.3267 86.4791 11.26V9.38H84.3391C84.2591 9.23333 84.1791 9.04 84.0991 8.8C84.0324 8.56 83.9991 8.30667 83.9991 8.04C83.9991 7.56 84.1057 7.21333 84.3191 7C84.5457 6.78667 84.8324 6.68 85.1791 6.68H88.5591C88.9591 6.68 89.2657 6.79333 89.4791 7.02C89.7057 7.23333 89.8191 7.54 89.8191 7.94V12.02Z" fill="black"/>
</svg>
